<svg width="30" height="30" viewBox="0 0 30 30" fill="none" xmlns="http://www.w3.org/2000/svg">
<path d="M15 0.741211C6.7125 0.741211 2.18932e-06 7.45371 2.18932e-06 15.7412C-0.00169914 18.8901 0.988222 21.9596 2.82933 24.5142C4.67043 27.0688 7.26922 28.9788 10.257 29.9732C11.007 30.1037 11.2875 29.6537 11.2875 29.2592C11.2875 28.9037 11.268 27.7232 11.268 26.4662C7.5 27.1607 6.525 25.5482 6.225 24.7037C6.0555 24.2717 5.325 22.9412 4.6875 22.5842C4.1625 22.3037 3.4125 21.6092 4.668 21.5912C5.85 21.5717 6.693 22.6787 6.975 23.1287C8.325 25.3967 10.482 24.7592 11.343 24.3662C11.475 23.3912 11.868 22.7357 12.3 22.3607C8.9625 21.9857 5.475 20.6912 5.475 14.9537C5.475 13.3217 6.0555 11.9732 7.0125 10.9217C6.8625 10.5467 6.3375 9.00921 7.1625 6.94671C7.1625 6.94671 8.418 6.55371 11.2875 8.48571C12.5086 8.1468 13.7703 7.97623 15.0375 7.97871C16.3125 7.97871 17.5875 8.14671 18.7875 8.48421C21.6555 6.53421 22.9125 6.94821 22.9125 6.94821C23.7375 9.01071 23.2125 10.5482 23.0625 10.9232C24.018 11.9732 24.6 13.3037 24.6 14.9537C24.6 20.7107 21.0945 21.9857 17.757 22.3607C18.3 22.8287 18.7695 23.7287 18.7695 25.1357C18.7695 27.1412 18.75 28.7537 18.75 29.2607C18.75 29.6537 19.032 30.1217 19.782 29.9717C22.7595 28.9664 25.3469 27.0527 27.1799 24.4999C29.0128 21.9472 29.9991 18.8839 30 15.7412C30 7.45371 23.2875 0.741211 15 0.741211Z" fill="#FFFCF3"/>
</svg>
